<?xml version="1.0" standalone="yes"?>
<svg width="24" height="21">
<path style="fill:#000000; stroke:none;" d="M0 0L1 1L0 0z"/>
<path style="fill:#fefefe; stroke:none;" d="M13 19L7 17L3 18C2.66232 10.1353 1.90628 6.05664 9 1C-8.23128 -6.21279 0.19769 33.6507 13 19z"/>
<path style="fill:#9a9a9a; stroke:none;" d="M9 0L9 1L14 1L9 0z"/>
<path style="fill:#fefefe; stroke:none;" d="M14 0L14 1L23 6L23 13L19 15L20 18L15 18L15 21C17.2322 20.9921 20.5158 21.468 22.3966 19.9722C25.2982 17.6647 25.3044 3.33264 22.3966 1.02778C20.3169 -0.620762 16.4718 0.00190926 14 0z"/>
<path style="fill:#000000; stroke:none;" d="M23 0L24 1L23 0z"/>
<path style="fill:#1e1e1c; stroke:none;" d="M3 17L8 20L15 20L16 18L16 17L14 17L13 9L16 10L8 5L8 4L18 4C7.11666 -7.11356 3.25963 9.23676 3 17z"/>
<path style="fill:#757573; stroke:none;" d="M17 2L18 3L17 2z"/>
<path style="fill:#4f504e; stroke:none;" d="M8 4L8 5L15 7L17 5L8 4z"/>
<path style="fill:#7a7a79; stroke:none;" d="M17 5L20 5L19 3L17 5z"/>
<path style="fill:#828281; stroke:none;" d="M7 5L8 6L7 5z"/>
<path style="fill:#adadad; stroke:none;" d="M15.6667 5.33333L16.3333 5.66667L15.6667 5.33333z"/>
<path style="fill:#1e1e1d; stroke:none;" d="M17 5L16 17L19 18L23 13L23 7L17 5z"/>
<path style="fill:#646463; stroke:none;" d="M2.33333 6.66667L2.66667 7.33333L2.33333 6.66667z"/>
<path style="fill:#727271; stroke:none;" d="M6 6L4 13L6 6z"/>
<path style="fill:#f0f0f0; stroke:none;" d="M15 6L17 11L18 11L15 6z"/>
<path style="fill:#a5a5a5; stroke:none;" d="M21.6667 6.33333L22.3333 6.66667L21.6667 6.33333z"/>
<path style="fill:#20201e; stroke:none;" d="M6 8L6 11L7 11L6 8z"/>
<path style="fill:#666665; stroke:none;" d="M7 8L7 11L8 11L7 8z"/>
<path style="fill:#9f9f9f; stroke:none;" d="M22 8L23 9L22 8z"/>
<path style="fill:#a8a8a8; stroke:none;" d="M13 9L16 14L17 14L18 11L13 9z"/>
<path style="fill:#b5b5b3; stroke:none;" d="M21.3333 9.66667L21.6667 10.3333L21.3333 9.66667z"/>
<path style="fill:#d0d1cf; stroke:none;" d="M6 11L6 13L8 13L8 11L6 11z"/>
<path style="fill:#898989; stroke:none;" d="M2 12L3 13L2 12z"/>
<path style="fill:#929291; stroke:none;" d="M8.66667 12.3333L9.33333 12.6667L8.66667 12.3333z"/>
<path style="fill:#fbfbfb; stroke:none;" d="M7 14L12 15L11 12L7 14z"/>
<path style="fill:#989898; stroke:none;" d="M11 12L12 13L11 12z"/>
<path style="fill:#dfdfdf; stroke:none;" d="M15.3333 12.6667L15.6667 13.3333L15.3333 12.6667z"/>
<path style="fill:#838382; stroke:none;" d="M3 13L3 16L4 16L3 13z"/>
<path style="fill:#5e5e5d; stroke:none;" d="M20.6667 13.3333L21.3333 13.6667L20.6667 13.3333z"/>
<path style="fill:#767875; stroke:none;" d="M15 14L14 17L15 14z"/>
<path style="fill:#b6b6b6; stroke:none;" d="M10 15L10 16L13 16L10 15z"/>
<path style="fill:#a4a4a4; stroke:none;" d="M3.66667 17.3333L4.33333 17.6667L3.66667 17.3333z"/>
<path style="fill:#8d8d8b; stroke:none;" d="M16.6667 17.3333L17.3333 17.6667L16.6667 17.3333z"/>
<path style="fill:#818180; stroke:none;" d="M19 17L20 18L19 17z"/>
<path style="fill:#858584; stroke:none;" d="M7.33333 18.6667L7.66667 19.3333L7.33333 18.6667z"/>
<path style="fill:#000000; stroke:none;" d="M0 20L1 21L0 20z"/>
<path style="fill:#c7c7c7; stroke:none;" d="M13.6667 20.3333L14.3333 20.6667L13.6667 20.3333z"/>
<path style="fill:#000000; stroke:none;" d="M23 20L24 21L23 20z"/>
</svg>
