<?xml version="1.0" standalone="no"?>
<!DOCTYPE svg PUBLIC "-//W3C//DTD SVG 20010904//EN"
 "http://www.w3.org/TR/2001/REC-SVG-20010904/DTD/svg10.dtd">
<svg version="1.0" xmlns="http://www.w3.org/2000/svg"
 width="24.000000pt" height="21.000000pt" viewBox="0 0 24.000000 21.000000"
 preserveAspectRatio="xMidYMid meet">

<g transform="translate(0.000000,21.000000) scale(0.100000,-0.100000)"
fill="#000000" stroke="none">
<path d="M46 169 c-27 -31 -34 -73 -16 -84 6 -4 8 -15 5 -26 -5 -14 -2 -19 13
-19 11 0 22 -5 24 -12 6 -17 76 -18 82 -1 3 8 14 13 23 11 10 -2 17 2 16 9 -2
7 6 17 18 23 16 9 18 14 8 26 -9 11 -9 18 -1 26 8 8 2 20 -24 45 -29 27 -43
33 -79 33 -36 0 -48 -5 -69 -31z m130 -35 c4 -14 1 -37 -6 -52 -12 -24 -14
-25 -18 -7 -2 11 -9 26 -16 34 -9 12 -8 13 7 8 18 -7 24 8 7 18 -6 4 -8 11 -5
16 11 17 25 9 31 -17z m-96 -43 c0 -5 8 -7 19 -4 12 3 20 -2 24 -16 6 -25 -10
-27 -41 -5 -23 16 -29 34 -12 34 6 0 10 -4 10 -9z"/>
</g>
</svg>
